<svg xmlns="http://www.w3.org/2000/svg" viewBox="0 0 200 200" width="200" height="200">
  <defs>
    <linearGradient id="bbg" x1="0" y1="0" x2="1" y2="1">
      <stop offset="0%" stop-color="#ec4899"/>
      <stop offset="100%" stop-color="#f43f5e"/>
    </linearGradient>
  </defs>
  <rect width="200" height="200" rx="44" fill="url(#bbg)"/>
  <g opacity="0.18" transform="translate(100,100)">
    <ellipse cx="0" cy="-28" rx="16" ry="28" fill="white"/>
    <ellipse cx="0" cy="-28" rx="16" ry="28" fill="white" transform="rotate(60)"/>
    <ellipse cx="0" cy="-28" rx="16" ry="28" fill="white" transform="rotate(120)"/>
    <ellipse cx="0" cy="-28" rx="16" ry="28" fill="white" transform="rotate(180)"/>
    <ellipse cx="0" cy="-28" rx="16" ry="28" fill="white" transform="rotate(240)"/>
    <ellipse cx="0" cy="-28" rx="16" ry="28" fill="white" transform="rotate(300)"/>
  </g>
  <circle cx="100" cy="100" r="18" fill="white" opacity="0.2"/>
  <circle cx="100" cy="100" r="9" fill="white" opacity="0.4"/>
  <circle cx="100" cy="100" r="4" fill="white" opacity="0.75"/>
  <circle cx="58" cy="48" r="4" fill="white" opacity="0.12"/>
  <circle cx="150" cy="46" r="3" fill="white" opacity="0.1"/>
  <circle cx="46" cy="158" r="5" fill="white" opacity="0.08"/>
  <circle cx="158" cy="152" r="4" fill="white" opacity="0.09"/>
</svg>
