<svg xmlns="http://www.w3.org/2000/svg" viewBox="0 0 200 200" width="200" height="200">
  <defs>
    <radialGradient id="bg8" cx="50%" cy="40%" r="60%">
      <stop offset="0%" stop-color="#2dd4bf"/>
      <stop offset="100%" stop-color="#0d9488"/>
    </radialGradient>
    <linearGradient id="skin8" x1="0" y1="0" x2="0" y2="1">
      <stop offset="0%" stop-color="#f0d0a0"/>
      <stop offset="100%" stop-color="#d4a574"/>
    </linearGradient>
  </defs>
  <rect width="200" height="200" rx="40" fill="url(#bg8)"/>
  <!-- Shoulders -->
  <ellipse cx="100" cy="210" rx="70" ry="50" fill="#1a3040" opacity="0.9"/>
  <!-- Neck -->
  <rect x="87" y="130" width="26" height="25" rx="6" fill="url(#skin8)"/>
  <!-- Head -->
  <ellipse cx="100" cy="95" rx="37" ry="43" fill="url(#skin8)"/>
  <!-- Hair - bob cut -->
  <path d="M60 80 Q60 48 100 42 Q140 48 140 80 L140 65 Q138 38 100 32 Q62 38 60 65 Z" fill="#3d2314"/>
  <path d="M60 75 L55 115 Q58 120 65 118 L63 85 Z" fill="#3d2314"/>
  <path d="M140 75 L145 115 Q142 120 135 118 L137 85 Z" fill="#3d2314"/>
  <!-- Glasses -->
  <rect x="67" y="85" width="26" height="20" rx="10" fill="none" stroke="#4a3728" stroke-width="2.5"/>
  <rect x="107" y="85" width="26" height="20" rx="10" fill="none" stroke="#4a3728" stroke-width="2.5"/>
  <line x1="93" y1="93" x2="107" y2="93" stroke="#4a3728" stroke-width="2"/>
  <line x1="67" y1="93" x2="60" y2="90" stroke="#4a3728" stroke-width="2"/>
  <line x1="133" y1="93" x2="140" y2="90" stroke="#4a3728" stroke-width="2"/>
  <!-- Eyes behind glasses -->
  <ellipse cx="80" cy="95" rx="4" ry="5" fill="#1a1a2e"/>
  <ellipse cx="120" cy="95" rx="4" ry="5" fill="#1a1a2e"/>
  <circle cx="81.5" cy="93.5" r="1.5" fill="white" opacity="0.7"/>
  <circle cx="121.5" cy="93.5" r="1.5" fill="white" opacity="0.7"/>
  <!-- Nose -->
  <path d="M97 101 Q100 109 103 101" stroke="#c49a6c" stroke-width="1.5" fill="none"/>
  <!-- Mouth - gentle smile -->
  <path d="M90 116 Q100 121 110 116" stroke="#b06050" stroke-width="2" fill="none" stroke-linecap="round"/>
</svg>
