<svg xmlns="http://www.w3.org/2000/svg" viewBox="0 0 200 200" width="200" height="200">
  <defs>
    <radialGradient id="bg6" cx="50%" cy="40%" r="60%">
      <stop offset="0%" stop-color="#fb7185"/>
      <stop offset="100%" stop-color="#be123c"/>
    </radialGradient>
    <linearGradient id="skin6" x1="0" y1="0" x2="0" y2="1">
      <stop offset="0%" stop-color="#8d6748"/>
      <stop offset="100%" stop-color="#6b4a30"/>
    </linearGradient>
  </defs>
  <rect width="200" height="200" rx="40" fill="url(#bg6)"/>
  <!-- Shoulders -->
  <ellipse cx="100" cy="210" rx="70" ry="50" fill="#2d1f3d" opacity="0.9"/>
  <!-- Neck -->
  <rect x="85" y="130" width="30" height="25" rx="6" fill="url(#skin6)"/>
  <!-- Head -->
  <ellipse cx="100" cy="95" rx="38" ry="44" fill="url(#skin6)"/>
  <!-- Hair - short textured -->
  <path d="M64 80 Q64 50 100 44 Q136 50 136 80 L136 68 Q134 42 100 36 Q66 42 64 68 Z" fill="#1a1210"/>
  <circle cx="72" cy="62" r="4" fill="#1a1210"/>
  <circle cx="85" cy="55" r="5" fill="#1a1210"/>
  <circle cx="100" cy="52" r="5" fill="#1a1210"/>
  <circle cx="115" cy="55" r="5" fill="#1a1210"/>
  <circle cx="128" cy="62" r="4" fill="#1a1210"/>
  <!-- Eyes -->
  <ellipse cx="82" cy="95" rx="5" ry="5.5" fill="#1a1a2e"/>
  <ellipse cx="118" cy="95" rx="5" ry="5.5" fill="#1a1a2e"/>
  <circle cx="83.5" cy="93.5" r="1.5" fill="white" opacity="0.8"/>
  <circle cx="119.5" cy="93.5" r="1.5" fill="white" opacity="0.8"/>
  <!-- Eyebrows -->
  <path d="M73 84 Q82 80 92 84" stroke="#1a1210" stroke-width="2.5" fill="none" stroke-linecap="round"/>
  <path d="M108 84 Q118 80 127 84" stroke="#1a1210" stroke-width="2.5" fill="none" stroke-linecap="round"/>
  <!-- Nose -->
  <path d="M96 100 Q100 111 104 100" stroke="#7a5535" stroke-width="1.5" fill="none"/>
  <!-- Mouth - warm smile -->
  <path d="M87 115 Q100 124 113 115" stroke="#8a4a3a" stroke-width="2.2" fill="none" stroke-linecap="round"/>
</svg>
