<svg xmlns="http://www.w3.org/2000/svg" viewBox="0 0 200 200" width="200" height="200">
  <defs>
    <radialGradient id="bg1" cx="50%" cy="40%" r="60%">
      <stop offset="0%" stop-color="#60a5fa"/>
      <stop offset="100%" stop-color="#1d4ed8"/>
    </radialGradient>
    <linearGradient id="skin1" x1="0" y1="0" x2="0" y2="1">
      <stop offset="0%" stop-color="#f0d0a0"/>
      <stop offset="100%" stop-color="#d4a574"/>
    </linearGradient>
  </defs>
  <rect width="200" height="200" rx="40" fill="url(#bg1)"/>
  <!-- Shoulders -->
  <ellipse cx="100" cy="210" rx="70" ry="50" fill="#1e3a5f" opacity="0.9"/>
  <!-- Neck -->
  <rect x="85" y="130" width="30" height="25" rx="6" fill="url(#skin1)"/>
  <!-- Head -->
  <ellipse cx="100" cy="95" rx="38" ry="44" fill="url(#skin1)"/>
  <!-- Hair -->
  <path d="M62 85 Q62 50 100 45 Q138 50 138 85 L138 70 Q135 42 100 38 Q65 42 62 70 Z" fill="#2c1810"/>
  <!-- Eyes -->
  <ellipse cx="82" cy="95" rx="5" ry="5.5" fill="#1a1a2e"/>
  <ellipse cx="118" cy="95" rx="5" ry="5.5" fill="#1a1a2e"/>
  <circle cx="83.5" cy="93.5" r="1.5" fill="white" opacity="0.8"/>
  <circle cx="119.5" cy="93.5" r="1.5" fill="white" opacity="0.8"/>
  <!-- Eyebrows -->
  <path d="M73 84 Q82 79 92 83" stroke="#2c1810" stroke-width="2.5" fill="none" stroke-linecap="round"/>
  <path d="M108 83 Q118 79 127 84" stroke="#2c1810" stroke-width="2.5" fill="none" stroke-linecap="round"/>
  <!-- Nose -->
  <path d="M97 100 Q100 110 103 100" stroke="#c49a6c" stroke-width="1.5" fill="none"/>
  <!-- Mouth -->
  <path d="M88 115 Q100 122 112 115" stroke="#b06050" stroke-width="2" fill="none" stroke-linecap="round"/>
</svg>
