<svg xmlns="http://www.w3.org/2000/svg" viewBox="0 0 200 200" width="200" height="200">
  <defs>
    <linearGradient id="pbg" x1="0" y1="0" x2="1" y2="1">
      <stop offset="0%" stop-color="#6366f1"/>
      <stop offset="100%" stop-color="#a855f7"/>
    </linearGradient>
  </defs>
  <rect width="200" height="200" rx="44" fill="url(#pbg)"/>
  <polygon points="100,32 155,75 140,140 60,140 45,75" fill="white" opacity="0.12"/>
  <polygon points="100,48 143,82 131,130 69,130 57,82" fill="white" opacity="0.1"/>
  <polygon points="100,64 130,88 122,120 78,120 70,88" fill="white" opacity="0.15"/>
  <circle cx="100" cy="96" r="18" fill="white" opacity="0.25"/>
  <circle cx="100" cy="96" r="8" fill="white" opacity="0.6"/>
  <line x1="100" y1="96" x2="100" y2="48" stroke="white" stroke-width="1.5" opacity="0.2"/>
  <line x1="100" y1="96" x2="57" y2="82" stroke="white" stroke-width="1.5" opacity="0.2"/>
  <line x1="100" y1="96" x2="143" y2="82" stroke="white" stroke-width="1.5" opacity="0.2"/>
  <circle cx="68" cy="50" r="4" fill="white" opacity="0.15"/>
  <circle cx="148" cy="155" r="6" fill="white" opacity="0.1"/>
  <circle cx="42" cy="160" r="8" fill="white" opacity="0.07"/>
  <circle cx="160" cy="48" r="5" fill="white" opacity="0.12"/>
</svg>
